<svg xmlns="http://www.w3.org/2000/svg" viewBox="0 0 31.88 31.97"><defs><style>.cls-1{fill:none;stroke:#327fbe;stroke-miterlimit:10;stroke-width:1.5px;fill-rule:evenodd;}</style></defs><title>Ресурс 2</title><g id="Слой_2" data-name="Слой 2"><g id="Layer_2" data-name="Layer 2"><path class="cls-1" d="M2.13,13.93H13.19V31.22H2.12C2.12,25.94,2.13,19.22,2.13,13.93Z"/><path class="cls-1" d="M29.75,31.22H18.68c0-5.29,0-12,0-17.3H29.76C29.76,19.2,29.75,25.92,29.75,31.22Z"/><path class="cls-1" d="M18.68,31.21H13.19V9.15h5.5C18.69,16.5,18.68,23.84,18.68,31.21Z"/><path class="cls-1" d="M13.19,13.93c-3.69,0-8.76,3-12.44,3,0-1.6,0-6.18,0-7.79H13.19Z"/><path class="cls-1" d="M31.13,9.14c0,1.6,0,6.17,0,7.77-3.67,0-8.75-3-12.43-3V9.14Z"/><path class="cls-1" d="M17.6,7.41c-.75-.21-1.08-.82-.56-1.49C19,3.41,21.34,1.41,24.58.82A3.08,3.08,0,0,1,28,2.2c.45,1-.15,2.82-1.28,3.74C25,7.33,22.11,7.71,19.9,7.71A10.23,10.23,0,0,1,17.6,7.41Z"/><path class="cls-1" d="M14.27,7.41c.76-.21,1.08-.82.56-1.49C12.89,3.41,10.54,1.41,7.3.82A3.06,3.06,0,0,0,3.86,2.2C3.41,3.2,4,5,5.13,5.94,6.83,7.33,9.76,7.71,12,7.71A10.07,10.07,0,0,0,14.27,7.41Z"/></g></g></svg>