<svg xmlns="http://www.w3.org/2000/svg" viewBox="0 0 39.86 31.38"><defs><style>.cls-1{fill:none;stroke:#327fbe;stroke-miterlimit:10;stroke-width:1.5px;}</style></defs><title>Ресурс 3</title><g id="Слой_2" data-name="Слой 2"><g id="Layer_2" data-name="Layer 2"><path class="cls-1" d="M38.56,21.38a3.2,3.2,0,0,1-3.28,3.13H4.58A3.21,3.21,0,0,1,1.3,21.38V3.88A3.21,3.21,0,0,1,4.58.75h30.7a3.2,3.2,0,0,1,3.28,3.13Z"/><path class="cls-1" d="M39.11,28.84a1.77,1.77,0,0,1-1.74,1.79H2.49A1.77,1.77,0,0,1,.75,28.84h0A1.78,1.78,0,0,1,2.49,27H37.37a1.78,1.78,0,0,1,1.74,1.81Z"/><polyline class="cls-1" points="19.93 18.72 19.93 21.09 7.65 21.09 7.65 12.37 16.04 12.37"/><polygon class="cls-1" points="34.03 18.72 19.93 18.72 16.04 18.72 16.04 12.37 16.04 6.71 34.03 6.71 34.03 18.72"/></g></g></svg>