<svg xmlns="http://www.w3.org/2000/svg" viewBox="0 0 42.72 30.74"><defs><style>.cls-1{fill:none;stroke:#327fbe;stroke-miterlimit:10;stroke-width:1.5px;}</style></defs><title>Ресурс 8</title><g id="Слой_2" data-name="Слой 2"><g id="Layer_2" data-name="Layer 2"><path class="cls-1" d="M6.94,26.87,5.2,27A2.39,2.39,0,0,1,2.59,24.9L.76,6.34A2.39,2.39,0,0,1,2.9,3.73L33,.76A2.39,2.39,0,0,1,35.62,2.9L36,6.56"/><path class="cls-1" d="M42,27.6A2.39,2.39,0,0,1,39.58,30H9.33A2.39,2.39,0,0,1,6.94,27.6V9A2.39,2.39,0,0,1,9.33,6.56H39.58A2.39,2.39,0,0,1,42,9Z"/><line class="cls-1" x1="8.87" y1="25.67" x2="13.74" y2="25.67"/><line class="cls-1" x1="17.64" y1="25.67" x2="22.51" y2="25.67"/><line class="cls-1" x1="26.41" y1="25.67" x2="31.28" y2="25.67"/><line class="cls-1" x1="35.18" y1="25.67" x2="40.05" y2="25.67"/><rect class="cls-1" x="33.02" y="12.97" width="5.85" height="4.64"/></g></g></svg>