<svg xmlns="http://www.w3.org/2000/svg" viewBox="0 0 45.48 30.74"><defs><style>.cls-1{fill:none;stroke:#327fbe;stroke-miterlimit:10;stroke-width:1.5px;}</style></defs><title>Ресурс 4</title><g id="Слой_2" data-name="Слой 2"><g id="Layer_2" data-name="Layer 2"><path class="cls-1" d="M44.73,27.1a145.62,145.62,0,0,0-22-1.36c-14.14,0-22,1.36-22,1.36V.89s7.85,1.36,22,1.36a145.62,145.62,0,0,0,22-1.36Z"/><line class="cls-1" x1="8.6" y1="30.74" x2="8.6" y2="26.42"/><line class="cls-1" x1="36.87" y1="26.42" x2="36.87" y2="30.74"/><path class="cls-1" d="M28.09,11.4A5.36,5.36,0,1,1,22.74,6,5.37,5.37,0,0,1,28.09,11.4Z"/><path class="cls-1" d="M12.36,26a10.74,10.74,0,0,1,10.37-8.15A10.88,10.88,0,0,1,33.05,26"/></g></g></svg>