<svg xmlns="http://www.w3.org/2000/svg" viewBox="0 0 49.48 31.65"><defs><style>.cls-1{fill:none;stroke:#327fbe;stroke-miterlimit:10;stroke-width:1.5px;}</style></defs><title>Ресурс 6</title><g id="Слой_2" data-name="Слой 2"><g id="Layer_2" data-name="Layer 2"><path class="cls-1" d="M19.77,18.77a2.33,2.33,0,1,1-3.07-1.2A2.34,2.34,0,0,1,19.77,18.77Z"/><line class="cls-1" x1="12.68" y1="14.99" x2="35.82" y2="4.86"/><path class="cls-1" d="M48.73,30.9a4.15,4.15,0,0,1-3.88-4.38V22.83a4.15,4.15,0,0,1,3.88-4.37Z"/><path class="cls-1" d="M35.39,22.74,33,18.44l7.35-3.22a3.88,3.88,0,0,0,2-5.12l-3.07-7a3.88,3.88,0,0,0-5.12-2L1,15.21c-2,.86,9.55,2,10.41,4L13,22.94a3.88,3.88,0,0,0,5.12,2L29.43,20l3.66,6.62H44.85V22.74Z"/><line class="cls-1" x1="33" y1="18.44" x2="29.43" y2="20"/></g></g></svg>