<svg xmlns="http://www.w3.org/2000/svg" viewBox="0 0 31.88 31.97"><defs><style>.cls-1{fill:none;stroke:#327fbe;stroke-miterlimit:10;stroke-width:1.5px;fill-rule:evenodd}</style></defs><g id="Слой_2" data-name="Слой 2"><g id="Layer_2" data-name="Layer 2"><path class="cls-1" d="M2.13 13.93h11.06v17.29H2.12c0-5.28.01-12 .01-17.29zm27.62 17.29H18.68v-17.3h11.08c0 5.28-.01 12-.01 17.3z"/><path class="cls-1" d="M18.68 31.21h-5.49V9.15h5.5c0 7.35-.01 14.69-.01 22.06zm-5.49-17.28c-3.69 0-8.76 3-12.44 3V9.14h12.44zm17.94-4.79v7.77c-3.67 0-8.75-3-12.43-3V9.14zM17.6 7.41c-.75-.21-1.08-.82-.56-1.49 1.96-2.51 4.3-4.51 7.54-5.1A3.08 3.08 0 0 1 28 2.2c.45 1-.15 2.82-1.28 3.74C25 7.33 22.11 7.71 19.9 7.71a10.23 10.23 0 0 1-2.3-.3zm-3.33 0c.76-.21 1.08-.82.56-1.49-1.94-2.51-4.29-4.51-7.53-5.1A3.06 3.06 0 0 0 3.86 2.2C3.41 3.2 4 5 5.13 5.94 6.83 7.33 9.76 7.71 12 7.71a10.07 10.07 0 0 0 2.27-.3z"/></g></g></svg>