<svg xmlns="http://www.w3.org/2000/svg" viewBox="0 0 39.86 31.38"><defs><style>.cls-1{fill:none;stroke:#327fbe;stroke-miterlimit:10;stroke-width:1.5px}</style></defs><g id="Слой_2" data-name="Слой 2"><g id="Layer_2" data-name="Layer 2"><path class="cls-1" d="M38.56 21.38a3.2 3.2 0 0 1-3.28 3.13H4.58a3.21 3.21 0 0 1-3.28-3.13V3.88A3.21 3.21 0 0 1 4.58.75h30.7a3.2 3.2 0 0 1 3.28 3.13zm.55 7.46a1.77 1.77 0 0 1-1.74 1.79H2.49a1.77 1.77 0 0 1-1.74-1.79A1.78 1.78 0 0 1 2.49 27h34.88a1.78 1.78 0 0 1 1.74 1.81z"/><path class="cls-1" d="M19.93 18.72v2.37H7.65v-8.72h8.39"/><path class="cls-1" d="M34.03 18.72H16.04V6.71h17.99v12.01z"/></g></g></svg>