<svg xmlns="http://www.w3.org/2000/svg" viewBox="0 0 196.18 64.87"><defs><style>.cls-2{fill-rule:evenodd;fill:#327fbe}</style></defs><g id="Слой_2" data-name="Слой 2"><g id="Layer_2" data-name="Layer 2"><path d="M30.72 64.63H33a.08.08 0 0 0 .07-.06l2.9-12.16c0-.07 0-.1-.11-.1h-2.27a.1.1 0 0 0-.08.06l-2.9 12.15c0 .07 0 .11.11.11m9.35-4.36l1.93-7.9a.09.09 0 0 1 .08-.06h2.11c.1 0 .12 0 .12.1l-2.9 12.16a.11.11 0 0 1-.09.06h-2.87a.09.09 0 0 1-.1-.09l.07-7.74-1.85 7.77a.08.08 0 0 1-.08.06h-2.14c-.08 0-.11 0-.09-.11l2.89-12.15a.09.09 0 0 1 .08-.06h2.86a.11.11 0 0 1 .11.09zm5.82-5.57l-2.32 9.82c0 .07 0 .11.09.11h2.25s.06 0 .09-.06l2.33-9.87h1.6s.06 0 .08-.08l.54-2.21c0-.07 0-.1-.09-.1h-5.59a.09.09 0 0 0-.07.06l-.55 2.21a.09.09 0 0 0 .09.12zm5.2-2.33a.1.1 0 0 1 .08-.06h4.63c.09 0 .11 0 .09.1l-.54 2.21s-.05.08-.08.08H53l-.56 2.3h2.14c.08 0 .1 0 .09.1l-.54 2.2c0 .07-.05.08-.08.08h-2.2l-.67 2.87h2.25c.09 0 .11 0 .09.09L53 64.57a.09.09 0 0 1-.09.06H48.3c-.08 0-.12 0-.1-.11zm7.16 2.33h.49c.26 0 .39.09.4.29a3.26 3.26 0 0 1-.08.84 2.72 2.72 0 0 1-.33 1 .63.63 0 0 1-.48.2c-.07 0-.09 0-.09.07l-.32 2.22c0 .07 0 .09.07.09.27 0 .41.12.41.33a.67.67 0 0 1 0 .2L57.54 64a.27.27 0 0 0 0 .14v.11a1 1 0 0 0 0 .16 1.27 1.27 0 0 0 0 .14.11.11 0 0 0 .11.06h2.24c.08 0 .11 0 .08-.13l.03-.12a1.66 1.66 0 0 1 0-.4c0-.15.07-.4.13-.73l.5-2.64a4.39 4.39 0 0 0 .13-1.26 1.26 1.26 0 0 0-.8-1.16 1.76 1.76 0 0 0 .6-.29 1.65 1.65 0 0 0 .41-.47 1.73 1.73 0 0 0 .28-.54c.06-.19.12-.36.16-.54l.28-1.43a4.32 4.32 0 0 0 .09-.58 4.17 4.17 0 0 0 0-.5 1.33 1.33 0 0 0-.71-1.19 4.21 4.21 0 0 0-1.85-.32h-2.88c-.05 0-.06 0-.09.06l-2.36 12.15c0 .07 0 .11.1.11h2.24s.06 0 .08-.06zm8.28 5.57l1.87-7.9s.06-.06.09-.06h2.13c.07 0 .11 0 .09.1l-2.89 12.16a.09.09 0 0 1-.09.06h-2.82c-.06 0-.1 0-.1-.09l.06-7.74-1.82 7.77a.14.14 0 0 1-.1.06h-2.13c-.08 0-.13 0-.1-.11l2.88-12.15s.06-.06.09-.06h2.87c.06 0 .08 0 .09.09zm5.33-7.9L69 64.52c0 .07 0 .11.09.11h4.61a.09.09 0 0 0 .08-.06l.53-2.23c0-.07 0-.09-.11-.09H72l.66-2.87h2.18s.07 0 .09-.08l.54-2.2c0-.07 0-.1-.09-.1h-2.17l.53-2.3H76c.06 0 .06 0 .1-.08l.54-2.21c0-.07 0-.1-.11-.1H72l-.09.06M78 54.7h-1.5c-.08 0-.13-.06-.1-.12l.54-2.21s0-.06.1-.06h5.56c.09 0 .11 0 .11.1l-.54 2.21s-.06.08-.1.08h-1.58l-2.35 9.87a.09.09 0 0 1-.09.06h-2.23c-.09 0-.13 0-.11-.11zm10.82 1.43H91c.06 0 .07 0 .1-.07l.23-1a4.4 4.4 0 0 0 .15-1.42 1.49 1.49 0 0 0-.68-1.24 3.23 3.23 0 0 0-1.71-.38 5.08 5.08 0 0 0-1.43.18 2.52 2.52 0 0 0-1.06.56 3.35 3.35 0 0 0-.73 1 8.17 8.17 0 0 0-.49 1.45 5 5 0 0 0-.15 1.61 2.84 2.84 0 0 0 .15.8 6.31 6.31 0 0 0 .31.64 2.7 2.7 0 0 0 .4.54l.44.47a7.15 7.15 0 0 1 .61.73 1.35 1.35 0 0 1 .33.85 2.22 2.22 0 0 1-.06.66 1.69 1.69 0 0 1-.29.72.63.63 0 0 1-.52.22h-.18a.06.06 0 0 0-.1.05l-.66 2.23q0 .12.12.12h.32a5.47 5.47 0 0 0 1.44-.17 2.62 2.62 0 0 0 1.06-.55 3 3 0 0 0 .73-1.06 7.82 7.82 0 0 0 .52-1.61 4.79 4.79 0 0 0 .14-.86 3 3 0 0 0 0-.74 3.77 3.77 0 0 0-.16-.85 7 7 0 0 0-.33-.67 4.92 4.92 0 0 0-.41-.55c-.14-.16-.3-.33-.45-.47a8.53 8.53 0 0 1-.59-.66 1.5 1.5 0 0 1-.31-.76v-.25a2 2 0 0 1 .06-.27 1.76 1.76 0 0 1 .28-.73.62.62 0 0 1 .48-.23.35.35 0 0 1 .4.36 1.63 1.63 0 0 1-.07.56l-.17.68c0 .09 0 .12.1.12m3.93-3.76a.1.1 0 0 1 .07-.06h4.68c.08 0 .1 0 .08.1l-.58 2.2s-.05.08-.07.08h-2.3l-.49 2.3h2.12c.1 0 .12 0 .11.1l-.54 2.2c0 .07-.06.08-.09.08h-2.2l-.66 2.87h2.24c.1 0 .12 0 .1.09l-.52 2.23a.1.1 0 0 1-.09.06H90c-.09 0-.12 0-.11-.11zM100 54.7h.48c.26 0 .4.09.41.29a3.26 3.26 0 0 1-.08.84 2.89 2.89 0 0 1-.34 1 .6.6 0 0 1-.47.2c-.07 0-.1 0-.09.07l-.32 2.22c0 .07 0 .09.07.09.27 0 .4.12.4.33a.67.67 0 0 1 0 .2L99.24 64a.37.37 0 0 0 0 .14.2.2 0 0 0 0 .11.47.47 0 0 0 0 .16v.14a.13.13 0 0 0 .11.06h2.25c.08 0 .11 0 .08-.13a.35.35 0 0 1-.06-.14 1.55 1.55 0 0 1 0-.4c0-.15.07-.4.14-.73l.5-2.64a5.82 5.82 0 0 0 .13-1.26 1.28 1.28 0 0 0-.8-1.16 1.86 1.86 0 0 0 .6-.29 1.48 1.48 0 0 0 .4-.47 1.57 1.57 0 0 0 .29-.54 4 4 0 0 0 .15-.54l.29-1.43a4.24 4.24 0 0 0 .08-.58 2.09 2.09 0 0 0 0-.5 1.31 1.31 0 0 0-.7-1.19 4.23 4.23 0 0 0-1.86-.32H98c-.05 0-.06 0-.09.06l-2.33 12.17c0 .07 0 .11.11.11h2.23a.07.07 0 0 0 .08-.06zm11.55-2.39h-2.3a.14.14 0 0 0-.1 0l-3 8.72 1.1-8.65c0-.07 0-.1-.09-.1h-2.34c-.06 0-.09 0-.09.06l-1 12.15a.1.1 0 0 0 .1.11h3a.21.21 0 0 0 .08-.06l4.74-12.15c0-.08 0-.11-.08-.11m-2.09 12.32c-.08 0-.12 0-.09-.11l2.88-12.15s0-.06.09-.06h2.26c.06 0 .09 0 .08.1l-2.88 12.16s0 .06-.09.06zm5.6-9.6l-1.63 6.92a4.58 4.58 0 0 0-.17 1.38 1.52 1.52 0 0 0 .66 1.21 3.19 3.19 0 0 0 1.75.37h.41c.05 0 .07 0 .1-.07l.49-2.29a.09.09 0 0 0 0-.09.07.07 0 0 0-.1 0 .89.89 0 0 1-.36.07c-.22 0-.32-.08-.34-.27a1.76 1.76 0 0 1 .06-.48l1.55-6.49a1.09 1.09 0 0 1 .27-.62.6.6 0 0 1 .43-.18.66.66 0 0 1 .26.08.27.27 0 0 1 .12.23v.15l-.41 1.82c0 .07 0 .09.08.09h2.25s.07 0 .1-.07l.4-1.7a5.23 5.23 0 0 0 .14-1.37 1.5 1.5 0 0 0-.66-1.22 3.27 3.27 0 0 0-1.75-.38 3.73 3.73 0 0 0-2.4.67 3.89 3.89 0 0 0-1.25 2.24m7.32-2.62s0-.06.08-.06h4.62c.08 0 .12 0 .1.1l-.54 2.21s0 .08-.08.08h-2.3l-.54 2.3h2.15c.07 0 .1 0 .07.1l-.53 2.2c0 .07 0 .08-.07.08h-2.2l-.66 2.87h2.24c.07 0 .12 0 .09.09l-.51 2.23s0 .06-.09.06h-4.62c-.08 0-.12 0-.1-.11zm9.45 8l.6-2.45.75-3.16h.8a.28.28 0 0 1 .12.21 2.64 2.64 0 0 1-.06.55 9.26 9.26 0 0 1-.21 1 7.56 7.56 0 0 1-.2.77 3.07 3.07 0 0 1-.21.47.41.41 0 0 1-.23.22.62.62 0 0 1-.31.06h-.06a.07.07 0 0 0-.08.06l-.61 2.21c0 .09 0 .11.09.11h.12a6.06 6.06 0 0 0 1.43-.13 2.53 2.53 0 0 0 1-.45 2.49 2.49 0 0 0 .69-.87 6.57 6.57 0 0 0 .48-1.39l.55-2.31a4.66 4.66 0 0 0 .17-1.49 1.24 1.24 0 0 0-.66-1.08 4.2 4.2 0 0 0-1.84-.3h-2.76s-.08 0-.08.06l-2.9 12.15c0 .07 0 .11.11.11h2.25a.08.08 0 0 0 .07-.06l.95-4.06a.22.22 0 0 0 0-.06.57.57 0 0 1 0-.12m7.55-5.63l-2 9.87a.07.07 0 0 1-.07.06h-2.24c-.1 0-.12 0-.11-.11l2.36-12.15s.06-.06.09-.06h2.88a4 4 0 0 1 1.83.32 1.35 1.35 0 0 1 .73 1.19 4.17 4.17 0 0 1 0 .5c0 .18-.06.38-.1.58l-.28 1.43a4 4 0 0 1-.15.54 2.27 2.27 0 0 1-.27.54 2.71 2.71 0 0 1-.42.47 1.86 1.86 0 0 1-.6.29 1.22 1.22 0 0 1 .78 1.16 5 5 0 0 1-.1 1.26l-.52 2.64c-.07.33-.1.58-.14.73a3.27 3.27 0 0 0 0 .4.35.35 0 0 0 .06.14c0 .08 0 .13-.08.13h-2.26a.09.09 0 0 1-.09-.06.45.45 0 0 1-.06-.14v-.27a.24.24 0 0 1 0-.14l.8-4.12a.67.67 0 0 0 0-.2c0-.21-.15-.29-.4-.33-.07 0-.11 0-.09-.09l.33-2.22s0-.07.09-.07a.63.63 0 0 0 .48-.2 3.52 3.52 0 0 0 .33-1 3.79 3.79 0 0 0 .08-.84c0-.2-.14-.29-.4-.29zm4.63.2l-1.65 6.92c-.07.29-.12.56-.16.79a4.81 4.81 0 0 0 0 .65 1.37 1.37 0 0 0 .7 1.21 4.15 4.15 0 0 0 1.78.31 5.84 5.84 0 0 0 1.32-.13 2.88 2.88 0 0 0 1-.45 2.68 2.68 0 0 0 .76-.92 5.89 5.89 0 0 0 .54-1.44L150 55a4.5 4.5 0 0 0 .14-1.46 1.33 1.33 0 0 0-.68-1.19 3.86 3.86 0 0 0-1.77-.32 6.44 6.44 0 0 0-1.33.13 2.17 2.17 0 0 0-1 .46 2.52 2.52 0 0 0-.76.9A5.49 5.49 0 0 0 144 55m.78 6.94l1.65-6.94a.63.63 0 0 1 .7-.6c.26 0 .4.11.42.27a1.16 1.16 0 0 1 0 .31l-1.64 6.86a.93.93 0 0 1-.25.48.65.65 0 0 1-.47.14c-.27 0-.41-.07-.43-.26a.59.59 0 0 1 0-.11.74.74 0 0 1 0-.18m13.41-9.62h-2.3a.17.17 0 0 0-.1 0l-3 8.72 1.1-8.65c0-.07 0-.1-.09-.1h-2.34c-.06 0-.09 0-.09.06l-1 12.15c0 .07 0 .11.09.11h3l.08-.06 4.75-12.15c0-.08 0-.11-.09-.11m-2.08 12.37c-.07 0-.12 0-.09-.11l2.88-12.15s.05-.06.09-.06h2.25c.08 0 .12 0 .09.1l-2.89 12.16a.09.09 0 0 1-.09.06zm6-10h2.61c.32 0 .48.1.5.32a.72.72 0 0 1 0 .17 2.79 2.79 0 0 1-.09.7c-.06.27-.14.64-.27 1.11s-.26 1-.43 1.69-.37 1.52-.59 2.57a2.94 2.94 0 0 1-.28.7.51.51 0 0 1-.35.27s-.07 0-.06.05l-.74 2.23c0 .08 0 .13.1.13a7.73 7.73 0 0 0 1.35-.13 2.39 2.39 0 0 0 1-.47 2.6 2.6 0 0 0 .75-.88 5.94 5.94 0 0 0 .54-1.45l1.52-6.44a5.41 5.41 0 0 0 .15-.79 3.64 3.64 0 0 0 0-.65 1.37 1.37 0 0 0-.7-1.21 4.26 4.26 0 0 0-1.78-.3h-2.77a.13.13 0 0 0-.09.06l-.48 2.2c0 .07 0 .1.09.1m7.22-2.3a.11.11 0 0 1 .09-.06h4.62c.08 0 .12 0 .09.1l-.54 2.21s-.05.08-.08.08h-2.3L170.7 57h2.15c.08 0 .11 0 .09.1l-.55 2.2c0 .07 0 .08-.07.08h-2.19l-.67 2.87h2.24c.08 0 .11 0 .1.09l-.52 2.23s0 .06-.09.06h-4.61c-.08 0-.13 0-.1-.11zm7.16 2.33h.5c.24 0 .38.09.4.29a3.38 3.38 0 0 1-.09.84 2.34 2.34 0 0 1-.34 1 .58.58 0 0 1-.48.2s-.07 0-.07.07l-.33 2.22c0 .07 0 .09.08.09.25 0 .39.12.41.33a1.34 1.34 0 0 1 0 .2l-.72 4.12a.74.74 0 0 0 0 .14.49.49 0 0 0 0 .11.47.47 0 0 0 0 .16.21.21 0 0 0 0 .14s0 .06.1.06h2.24c.08 0 .11 0 .08-.13a1.3 1.3 0 0 1-.05-.14 1.55 1.55 0 0 1 0-.4 7.1 7.1 0 0 1 .14-.73l.49-2.64a4 4 0 0 0 .12-1.26 1.23 1.23 0 0 0-.79-1.16 1.53 1.53 0 0 0 .6-.29 1.91 1.91 0 0 0 .43-.47 2.25 2.25 0 0 0 .26-.54 4.08 4.08 0 0 0 .16-.54l.4-1.41a3.1 3.1 0 0 0 .08-.58 2.1 2.1 0 0 0 0-.5 1.33 1.33 0 0 0-.71-1.19 4.21 4.21 0 0 0-1.85-.32h-2.86a.08.08 0 0 0-.08.06l-2.38 12.15c0 .07 0 .11.1.11h2.25s.06 0 .08-.06zM35.35.19C23 1.25 13.49 10 11.76 23 10 36.32 18.88 49.16 30.42 52.07l-3.16 12.34a42.31 42.31 0 0 1-6.17-1.73A33.49 33.49 0 0 1 0 31.82C0 13.35 15.79 0 34.8 0" fill="#d31e47" fill-rule="evenodd"/><path class="cls-2" d="M44.87 19.87H54a.37.37 0 0 0 .33-.24l.67-3.18a12.31 12.31 0 0 0 .31-4.74 5.49 5.49 0 0 0-3.09-4.24A17.27 17.27 0 0 0 45 6.22a25.19 25.19 0 0 0-5.87.6 11.54 11.54 0 0 0-4.22 1.88A9.64 9.64 0 0 0 32.1 12a19.2 19.2 0 0 0-1.71 4.83 14.19 14.19 0 0 0-.27 5.42 8.6 8.6 0 0 0 .88 2.66 12.53 12.53 0 0 0 1.43 2.17 13.27 13.27 0 0 0 1.77 1.82c.66.57 1.29 1.08 1.94 1.59 1 .79 1.9 1.59 2.73 2.39a5.1 5.1 0 0 1 1.56 2.9 5.86 5.86 0 0 1-.08 2.22 5.26 5.26 0 0 1-1.08 2.41 2.7 2.7 0 0 1-2 .74 5.41 5.41 0 0 1-.77 0c-.21-.09-.78 0-.85.21l-1.74 7.43c0 .27.11.4.46.4h1.35a30.47 30.47 0 0 0 6-.24 10.07 10.07 0 0 0 4.18-1.71 12.33 12.33 0 0 0 2.78-4 23.2 23.2 0 0 0 1.8-5.42 14.81 14.81 0 0 0 .36-2.89 13.15 13.15 0 0 0-.16-2.48 9.54 9.54 0 0 0-.93-2.79 14 14 0 0 0-1.54-2.3 15.07 15.07 0 0 0-1.82-1.84c-.64-.55-1.29-1.07-1.91-1.57-1-.77-1.88-1.51-2.65-2.22a4.45 4.45 0 0 1-1.42-2.57 4.31 4.31 0 0 1-.06-.8 3.39 3.39 0 0 1 .14-.93 4.8 4.8 0 0 1 1-2.44 2.59 2.59 0 0 1 2-.74c1 0 1.56.4 1.7 1.2a4.94 4.94 0 0 1-.19 1.79v-.06l-.58 2.28c0 .27.1.41.44.41m132.5-4.07l-7.27 33c-.07.23.08.35.42.35h9.32a.37.37 0 0 0 .34-.24l7.34-33.11h6.6a.36.36 0 0 0 .34-.23l1.72-7.42c.06-.21-.09-.34-.44-.34H172.6a.35.35 0 0 0-.34.24l-1.72 7.41c0 .24.09.34.43.34zm-28.29-7.75a.36.36 0 0 1 .34-.24h19.15c.35 0 .51.13.44.34l-1.72 7.42a.35.35 0 0 1-.34.23h-9.53l-1.65 7.77h8.85c.35 0 .49.12.44.34l-1.72 7.42a.36.36 0 0 1-.33.23h-9.1l-2.09 9.58h9.31c.36 0 .51.12.45.35l-1.66 7.42a.36.36 0 0 1-.34.24h-19.14c-.35 0-.49-.12-.44-.35zm-19.28 26.48L128.45 8.1a.4.4 0 0 0-.44-.29h-11.85a.34.34 0 0 0-.34.24l-9.1 40.75c0 .23.1.35.45.35H116a.38.38 0 0 0 .34-.24l5.77-26 1.58 26c0 .19.16.3.42.3h11.71a.36.36 0 0 0 .34-.24l9.09-40.76c.06-.21-.09-.34-.44-.34h-8.79a.35.35 0 0 0-.34.24zM92.92 15.8h-6.37c-.35 0-.5-.1-.45-.34l1.74-7.41a.33.33 0 0 1 .33-.24h23.13c.35 0 .49.13.44.34L110 15.57a.35.35 0 0 1-.34.23h-6.61l-7.3 33.11a.37.37 0 0 1-.34.24H86.1c-.36 0-.5-.12-.45-.34zM51.66 49.15a.69.69 0 0 1-.39-.12.18.18 0 0 1-.05-.28L68.05 8a.54.54 0 0 1 .34-.18h12.38a.42.42 0 0 1 .45.34l-1.35 40.75c0 .16-.08.24-.33.24h-9.62c-.36 0-.51-.12-.45-.35l.47-6.86h-5.7l-2.47 7a.38.38 0 0 1-.34.18zM70.67 34l1.77-15.69L67.05 34z"/><path class="cls-2" d="M35.52 3.56h.8c-.62.15-1.2.32-1.78.52-13.69 3.43-17 18.28-12.1 28.1 2.22 4.46 5.48 6.56 10.71 8.41l-2 7.94c-2.81-.21-9.4-3.51-13.26-9.95-7.75-13-.72-34.55 17.67-35"/></g></g></svg>