<svg xmlns="http://www.w3.org/2000/svg" viewBox="0 0 32.59 32.43"><defs><style>.cls-1{fill:none;stroke:#327fbe;stroke-miterlimit:10;stroke-width:1.5px}</style></defs><g id="Слой_2" data-name="Слой 2"><g id="Layer_2" data-name="Layer 2"><path class="cls-1" d="M31.62 26.77A19 19 0 0 1 27 31.45L20.55 25a5 5 0 0 0-3.9-1.6 9.37 9.37 0 0 1-1.06 0 4 4 0 0 1-2.69-1A9.37 9.37 0 0 1 9.74 18a2.19 2.19 0 0 1-.14-.71c0-.19 0-.46.17-.56a.76.76 0 0 1 .58.06c1 .54 2 1.12 2.94 1.69a2 2 0 0 0 3.18-.84c.33-.57.66-1.11 1-1.69a2.2 2.2 0 0 0-.86-3.22c-.85-.49-1.72-1-2.56-1.48a2 2 0 0 1-.42-.28c-.42-.41-.33-.85.21-1a9 9 0 0 1 6.83.8 4.09 4.09 0 0 1 2.11 3.95 12.41 12.41 0 0 0 .06 1.93 4.44 4.44 0 0 0 1.35 2.62z"/><path class="cls-1" d="M22.68 27.14a12.85 12.85 0 0 1-4.74 1.68v2a.64.64 0 0 1-.63.63h-2.37a.63.63 0 0 1-.63-.63v-2a12.28 12.28 0 0 1-3-.8l-1 1.76a.64.64 0 0 1-.86.23l-2.04-1.19A.59.59 0 0 1 7.2 28l1-1.76a13 13 0 0 1-2.16-2.17L4.32 25a.6.6 0 0 1-.84-.22l-1.19-2.01a.65.65 0 0 1 .23-.86l1.71-1a12.2 12.2 0 0 1-.81-3h-2a.65.65 0 0 1-.63-.63v-2.35a.65.65 0 0 1 .63-.64h2a22.46 22.46 0 0 1 .8-3l-1.76-1a.65.65 0 0 1-.24-.86l1.2-2a.59.59 0 0 1 .84-.22L6 8.2A11.67 11.67 0 0 1 8.25 6l-1-1.74a.6.6 0 0 1 .23-.84l2-1.19a.63.63 0 0 1 .85.23l1 1.74a13 13 0 0 1 2.92-.78v-2a.64.64 0 0 1 .63-.63h2.37a.65.65 0 0 1 .63.63v2a13 13 0 0 1 3 .8l1-1.76a.62.62 0 0 1 .84-.23l2.05 1.19a.6.6 0 0 1 .23.84L24 6a21.27 21.27 0 0 1 2.22 2.2l1.8-1a.6.6 0 0 1 .84.22l1.2 2a.65.65 0 0 1-.24.86l-1.8 1a25 25 0 0 1 .78 2.93h2a.64.64 0 0 1 .62.64v2.45a.64.64 0 0 1-.62.63h-2a12.78 12.78 0 0 1-1.53 4.49"/></g></g></svg>