<svg xmlns="http://www.w3.org/2000/svg" viewBox="0 0 45.48 30.74"><defs><style>.cls-1{fill:none;stroke:#327fbe;stroke-miterlimit:10;stroke-width:1.5px}</style></defs><g id="Слой_2" data-name="Слой 2"><g id="Layer_2" data-name="Layer 2"><path class="cls-1" d="M44.73 27.1a145.62 145.62 0 0 0-22-1.36c-14.14 0-22 1.36-22 1.36V.89s7.85 1.36 22 1.36a145.62 145.62 0 0 0 22-1.36zM8.6 30.74v-4.32m28.27 0v4.32"/><path class="cls-1" d="M28.09 11.4A5.36 5.36 0 1 1 22.74 6a5.37 5.37 0 0 1 5.35 5.4zM12.36 26a10.74 10.74 0 0 1 10.37-8.15A10.88 10.88 0 0 1 33.05 26"/></g></g></svg>