<svg xmlns="http://www.w3.org/2000/svg" viewBox="0 0 39.85 37.67"><g data-name="Слой 2"><g data-name="Layer 2"><path d="M39.35 29.66a.15.15 0 0 0 0-.07v-.32a.21.21 0 0 1 0-.06h-.06v-.05h-.06c-.06 0 0 0 0 0l-8.74-4.31a.13.13 0 0 0-.08 0c-.15-.06-3.76-1.32-6.71 0l-6.5 2.36h-.06a2.17 2.17 0 0 0 .8 4.14c.07 0 .35 0 3.31-.2l2.75-.18a.71.71 0 0 0 .69-.69.73.73 0 0 0-.71-.74l-2.81.17-3.2.21a.71.71 0 0 1-.65-.59.7.7 0 0 1 .39-.8l6.5-2.36L24 26c2.28-1 5.26-.1 5.61 0l3.89 2-2.14 5a4.35 4.35 0 0 0-3.52-.47l-8.73 2.63a4.17 4.17 0 0 1-3.11-.33L2.29 27.42a.64.64 0 0 1-.3-.83.61.61 0 0 1 .76-.39l10.62 3.54a.72.72 0 0 0 .46-1.36L3.18 24.82a2.09 2.09 0 0 0-1.53 3.86l13.68 7.43a5.5 5.5 0 0 0 4.24.44l8.73-2.62a2.87 2.87 0 0 1 2.37.32l4.45 2.81h.61a.33.33 0 0 0 0-.06l3.55-7v-.27a.2.2 0 0 0 .07-.07zm-1.66.34l-2.53 5.4-2.56-1.62 2.19-5.18z" stroke="#58595b" stroke-miterlimit="10" fill="#58595b"/><path d="M13 2.5a9.58 9.58 0 1 1-9.58 9.58A9.58 9.58 0 0 1 13 2.5M13 0a12.08 12.08 0 1 0 12.11 12.08A12.09 12.09 0 0 0 13 0z" fill="#58595b"/><text transform="translate(9.21 19.16)" font-size="19.8" font-family="ProximaNovaCond-Semibold,ProximaNovaCond Semibold" font-weight="700" fill="#58595b">Р</text><path d="M8.71 16.19h6.76m-6.76-3.12l7.67-.02" stroke="#58595b" stroke-miterlimit="10" fill="none" stroke-width="2"/></g></g></svg>