<svg xmlns="http://www.w3.org/2000/svg" viewBox="0 0 79.52 86.7"><defs><style>.cls-4{fill:#a7a9ac}.cls-3{fill:none}.cls-3,.cls-4{stroke:#58595b;stroke-miterlimit:10;stroke-width:.75px}</style></defs><g id="Слой_2" data-name="Слой 2"><g id="Layer_3" data-name="Layer 3"><path d="M5.39 46.77V5.89S4.72.38 11.4.38h57.74s5-.33 5 4.51v41.88" fill="#a7a9ac"/><path fill="#f1f2f2" d="M10.8 47.27V5.72h57.91v41.05"/><path class="cls-3" d="M5.39 47.27V5.89S4.72.38 11.4.38h57.74s5-.33 5 4.51v42.38"/><path class="cls-4" d="M36.42 58.62h6.68v11.85h-6.68z"/><rect class="cls-4" x="15.31" y="72.81" width="48.9" height="6.84" rx="3.42" ry="3.42"/><circle class="cls-4" cx="39.76" cy="76.48" r="9.85"/><path class="cls-3" d="M10.8 47.27V5.72h57.91v41.05"/><rect class="cls-4" x=".37" y="47.11" width="78.77" height="11.68" rx="5.82" ry="5.82"/><rect x="30.66" y="50.78" width="18.19" height="3.67" rx="1.84" ry="1.84" fill="#d1d3d4" stroke="#58595b" stroke-miterlimit="10" stroke-width=".75"/><text transform="translate(25.84 39.73)" font-size="40.17" fill="#58595b" font-family="ProximaNovaCond-Regular,ProximaNovaCond Regular">IP</text></g></g></svg>