<svg xmlns="http://www.w3.org/2000/svg" viewBox="0 0 30.76 26.63"><defs><style>.cls-1{fill:#58595b}</style></defs><g id="Слой_2" data-name="Слой 2"><g id="Layer_1" data-name="Layer 1"><path class="cls-1" d="M27.51 26.63h-7.74l-1.32-2.15a10.5 10.5 0 0 1-3.36.25L14 26.63H6.22l.64-4.15a13.74 13.74 0 0 1-3.09-4L.34 17.8 0 9.63l3.07-1.07a11.06 11.06 0 0 1 1.68-2.07L2.62.4 4.07.14c.23 0 5.36-.89 8.28 2.11 4.18-.6 9.94 0 13.44 3.46 4 4 3.78 8.1 3 9.87-.44 1-1.72 3.48-2.2 4.41zm-6.34-2.5h3.47L24 19.55l.19-.35s1.81-3.51 2.31-4.63c0 0 1.38-3.24-2.48-7.09s-11.14-2.8-11.94-2.66l-.76.18-.46-.62C9.7 2.8 7.49 2.51 6 2.5l1.86 5.32-1.27.37A8.86 8.86 0 0 0 5 10.25l-.23.38-2.15.75.18 4.37 2.88.6.23.68A11.12 11.12 0 0 0 9 21l.56.45-.41 2.66h3.42l1.36-2.42 1 .43a7.61 7.61 0 0 0 3.72-.3l.92-.28z"/><path class="cls-1" d="M28.21 11.55l-.87-2.35c1.33-.48.86-2.32.8-2.52l2.4-.7c.46 1.47.46 4.53-2.33 5.57z"/><circle class="cls-1" cx="9.51" cy="10.77" r="1.5"/></g></g></svg>