<svg xmlns="http://www.w3.org/2000/svg" viewBox="0 0 107.65 89.8"><defs><style>.cls-1{fill:#a7a9ac}.cls-2{fill:#808285}.cls-3{fill:none;stroke:#58595b;stroke-miterlimit:10;stroke-width:.52px}</style></defs><g id="Слой_2" data-name="Слой 2"><g id="Layer_3" data-name="Layer 3"><path class="cls-1" d="M42.59 58.09s.78-1 1.37-5.46 7.51-50.51 7.51-50.51h5.07L48.15 59m9.17 1.53s.78-1 1.36-5.46 7.9-53.54 7.9-53.54h5.07l-8.77 59.88m10.72 1.75s.78-1 1.37-5.46S83.36 1 83.36 1h5.26l-9.07 63m12.1 2.09s.78-1 1.36-5.46S101.5.26 101.5.26h5.85L98 67.55"/><path class="cls-2" d="M45.52 58.48s-.88-.68-.59-3.12 8-53.24 8-53.24h3.58L48.38 59zm14.72 2.44s-.87-.68-.58-3.12 8.39-56.27 8.39-56.27h3.58l-8.75 60zm16.49 2.63s-.88-.68-.59-3.12S85 1 85 1h3.62l-9 63.21zm18.62 3.32s-.88-.68-.58-3.12 9-63.49 9-63.49h3.64L98 67.54z"/><path class="cls-1" d="M1.31 74.7s-.78-.13-.91-1.43-.39-2 .52-2.6 35.37-12.48 35.37-12.48a18.26 18.26 0 0 1 5.33-.26c2 .39 55.78 9.23 55.78 9.23s.78.1.78 1.43v3.12L65.67 88.23s-4.16 1.82-7.15 1.17S1.31 74.7 1.31 74.7z"/><path class="cls-2" d="M.38 72.16S0 74.66 1.63 75s56.88 14.41 56.88 14.41a11.16 11.16 0 0 0 6.62-1.12l33.13-16.5v-3L68.88 83.66s-5.12 3.63-9 2.88S.38 72.16.38 72.16z"/><path class="cls-3" d="M1.31 74.7s-.78-.13-.91-1.43-.39-2 .52-2.6 35.37-12.48 35.37-12.48a18.26 18.26 0 0 1 5.33-.26c2 .39 55.78 9.23 55.78 9.23s.78.1.78 1.43v3.12L65.67 88.23s-4.16 1.82-7.15 1.17S1.31 74.7 1.31 74.7z"/><path class="cls-3" d="M.17 71.94S56.25 86 57.61 86.18s5 .88 7.41-.39l33.16-17.2m-55.59-10.5s.78-1 1.37-5.46 7.51-50.51 7.51-50.51h5.07L48.15 59"/><path class="cls-3" d="M45.52 58.48s-.88-.68-.59-3.12 8-53.24 8-53.24m4.39 58.41s.78-1 1.36-5.46 7.9-53.54 7.9-53.54h5.07l-8.77 59.88"/><path class="cls-3" d="M60.24 60.92s-.87-.68-.58-3.12 8.39-56.27 8.39-56.27m5.55 61.63s.78-1 1.37-5.46S83.36 1 83.36 1h5.26l-9.07 63"/><path class="cls-3" d="M76.73 63.55s-.88-.68-.59-3.12S85 1 85 1m6.65 65.09s.78-1 1.36-5.46S101.5.26 101.5.26h5.85L98 67.55"/><path class="cls-3" d="M95.35 66.87s-.88-.68-.58-3.12 9-63.49 9-63.49"/></g></g></svg>