<svg xmlns="http://www.w3.org/2000/svg" viewBox="0 0 28.73 26.23"><defs><style>.cls-1{fill:#d31e47}</style></defs><g id="Слой_2" data-name="Слой 2"><g id="Layer_3" data-name="Layer 3"><path class="cls-1" d="M20.81 8l-2.3 4.71a3 3 0 0 1 .14.59 3.35 3.35 0 0 1-.65 2.48 3.39 3.39 0 0 1-4.73.68 3.38 3.38 0 0 1-.69-4.74 3.41 3.41 0 0 1 2.71-1.36 3.57 3.57 0 0 1 .47 0L19.5 7a.83.83 0 0 1 1.31 1z"/><path class="cls-1" d="M15.61 26.23A13.12 13.12 0 0 1 2.5 13.12a1.22 1.22 0 1 1 2.43 0 10.68 10.68 0 1 0 3.92-8.28A1.21 1.21 0 1 1 7.32 3a13.11 13.11 0 1 1 8.29 23.27z"/><path class="cls-1" d="M4.89 9.07L1.22 13.7l5.48.99-1.81-5.62z"/><path class="cls-1" d="M6.7 15.91h-.21L1 14.89a1.21 1.21 0 0 1-.92-.77 1.22 1.22 0 0 1 .18-1.18l3.68-4.62A1.21 1.21 0 0 1 6 8.7l1.82 5.62a1.22 1.22 0 0 1-1.12 1.59zm-3.27-3.05l1.49.27-.49-1.53z"/></g></g></svg>