<svg xmlns="http://www.w3.org/2000/svg" viewBox="0 0 245.41 234.3"><defs><style>.cls-2,.cls-3,.cls-4,.cls-6{stroke:#276497;stroke-miterlimit:10;stroke-width:.5px}.cls-2{fill:#327fbe}.cls-3{fill:#65abda}.cls-4{fill:none}.cls-6,.cls-7{fill:#fff}.cls-7{fill-rule:evenodd}</style></defs><g id="Слой_2" data-name="Слой 2"><g id="Layer_1" data-name="Layer 1"><path d="M3.72 100.22s4.79-10 16.2-11c9.81-.79 53.18-.46 53.18-.46s56.13-.91 58 0 5 2.28 6.84 4.56 3.2 9.82 3.2 12.78-137.42-5.88-137.42-5.88z" stroke-miterlimit="10" stroke-width=".5" stroke="#276497" fill="#005e9e"/><path class="cls-2" d="M2.35 102.73s4.27-7.79 8.14-10.39c5.1-3.42 14.8-3.41 14.8-3.41l100.15-.29s6.65-.4 10 2.28 5.56 4.71 5.56 17.51"/><path class="cls-3" d="M118.61 39.71c-2.28-7.4-4-19.07 8.54-26.18S157 .44 163.85.44s17.07-3.44 23.33 18.5 52.63 163.88 55.2 170.71 7.68 23-9.11 33.86-28.45 11.09-33.27 10.24-17.64.28-23.9-22.19-40.4-126-43-133.73-14.49-38.12-14.49-38.12z"/><path class="cls-4" d="M118.61 39.71c-2.28-7.4-4-19.07 8.54-26.18S157 .44 163.85.44s17.07-3.44 23.33 18.5 52.63 163.88 55.2 170.71 7.68 23-9.11 33.86-28.45 11.09-33.27 10.24-17.64.28-23.9-22.19-40.4-126-43-133.73-14.49-38.12-14.49-38.12z"/><circle cx="131.98" cy="30.1" r="5.69" fill="#d31e47" stroke="#ad1439" stroke-miterlimit="10" stroke-width=".5"/><path class="cls-4" d="M120.6 44.26s-4.27-16.79 6.26-24.19 29.31-12.51 35.85-13.94 19.06-3.7 23.33 9.68"/><path class="cls-6" d="M221 152.4L173 169a2.28 2.28 0 0 1-2.87-1.45l-1.59-4.87a2.28 2.28 0 0 1 1.46-2.88l48-16.59a2.28 2.28 0 0 1 2.87 1.45l1.59 4.87a2.28 2.28 0 0 1-1.46 2.87zM182.31 34.9l-48 16.59a2.28 2.28 0 0 1-2.88-1.49l-1.59-4.87a2.28 2.28 0 0 1 1.45-2.87l48-16.59a2.28 2.28 0 0 1 2.87 1.46l1.6 4.87a2.29 2.29 0 0 1-1.45 2.9zm42.96 130.59l-48 16.59a2.28 2.28 0 0 1-2.87-1.46l-1.59-4.86a2.28 2.28 0 0 1 1.46-2.87l48-16.6a2.29 2.29 0 0 1 2.87 1.46l1.6 4.87a2.28 2.28 0 0 1-1.47 2.87zm4.55 12.8l-48 16.59a2.28 2.28 0 0 1-2.87-1.45l-1.59-4.87a2.28 2.28 0 0 1 1.46-2.87l48-16.59a2.28 2.28 0 0 1 2.87 1.45l1.59 4.87a2.28 2.28 0 0 1-1.46 2.87zm4.84 13.71l-48 16.59a2.28 2.28 0 0 1-2.87-1.46l-1.59-4.86a2.29 2.29 0 0 1 1.45-2.87l48-16.59a2.28 2.28 0 0 1 2.87 1.45l1.6 4.87a2.28 2.28 0 0 1-1.46 2.87z"/><path class="cls-4" d="M198.51 194.48l2.89 8.54m-7.54-22.24l3.09 9.11m-7.46-21.98l3.03 8.94m-7.33-21.63l2.89 8.52m28.43 24.21l3.1 8.81m-7.88-22.33l3.24 9.18m-7.7-21.82l3.18 9m-7.91-22.4l3.29 9.33"/><circle class="cls-2" cx="182.06" cy="113.97" r="22.48"/><path class="cls-4" d="M142.22 39.14l2.57 8.53m10.52-13.37l3.13 8.82m9.96-13.37l3.41 8.82"/><rect class="cls-6" x="140.23" y="53.65" width="11.1" height="33.29" rx="2.18" ry="2.18" transform="rotate(-19.6 145.825 70.292)"/><rect class="cls-6" x="178.93" y="40.28" width="11.1" height="33.29" rx="2.18" ry="2.18" transform="rotate(-19.6 184.505 56.91)"/><circle class="cls-2" cx="162.43" cy="55.07" r="5.69"/><circle class="cls-2" cx="167.97" cy="72.43" r="5.69"/><path class="cls-2" d="M182.48 79.68s0-2.7 3.13-2.13a74.42 74.42 0 0 1 10.1 2.45c1.71.71 2.85 1.28 1.71 3.69-.92 2-2.27 4.56-2.27 4.56s-.43 1.56-2.57.71a48.92 48.92 0 0 0-7-1.85c-1.1-.26-3.41.43-3.55-2.28a20.77 20.77 0 0 1 .45-5.15zm-31.77 19.18s-2.43-1.17-.56-3.74a75.36 75.36 0 0 1 6.56-8.05c1.38-1.23 2.38-2 4.07.06 1.37 1.69 3.11 4 3.11 4s1.23 1.06-.47 2.61a51.09 51.09 0 0 0-4.68 5.48c-.72.89-1.1 3.26-3.6 2.22a20.56 20.56 0 0 1-4.43-2.58zm30.23 49.72s-.05 2.7-3.17 2.08a75.42 75.42 0 0 1-10.05-2.58c-1.7-.74-2.83-1.33-1.65-3.73 1-1.95 2.35-4.51 2.35-4.51s.45-1.56 2.57-.67a49.82 49.82 0 0 0 6.94 2c1.11.28 3.42-.37 3.52 2.34a20.35 20.35 0 0 1-.51 5.07zm31.66-19.22s2.41 1.21.5 3.75a75.51 75.51 0 0 1-6.69 7.95c-1.4 1.2-2.42 2-4.07-.14-1.34-1.7-3.05-4.07-3.05-4.07s-1.21-1.09.51-2.61a50.65 50.65 0 0 0 4.78-5.4c.73-.87 1.15-3.24 3.63-2.16a20.73 20.73 0 0 1 4.39 2.68z"/><path class="cls-6" d="M164.7 17.09s-1.42-1.57 1.14-2.71 7.68-2.7 7.68-2.7 2.28-1.14 3 .85 1.28 3.85 1.28 3.85 1.42 1.7-1.14 2.56-8 2.84-8 2.84-1.85 1.28-2.85-1.14a15.71 15.71 0 0 1-1.11-3.55z"/><circle class="cls-2" cx="182.06" cy="113.97" r="11.1"/><path class="cls-3" d="M127.43 232.61H13.91A13.7 13.7 0 0 1 .25 219V110a13.69 13.69 0 0 1 13.66-13.67h113.52A13.7 13.7 0 0 1 141.09 110v109a13.7 13.7 0 0 1-13.66 13.61z"/><path class="cls-7" d="M44.93 176.62h.86l1.11-4.67H46l-1.11 4.66m3.63-1.61l.72-3h.81s.05 0 0 0L49 176.6h-1.1v-3l-.7 3h-.82l1.11-4.66h1.09zm2.23-2.14l-.89 3.77h.87l.9-3.79h.61l.21-.85h-2.09l-.21.84v.05zm2-.89h1.77l-.21.85h-.88l-.21.88h.82l-.21.85H53l-.26 1.1h.86l-.2.86h-1.72zm2.74.89h.19c.1 0 .15 0 .16.11a1.6 1.6 0 0 1 0 .32.94.94 0 0 1-.13.38.21.21 0 0 1-.18.07l-.12.85s.16 0 .16.12v.08l-.3 1.58v.12c0 .07 0 0 0 0h.91v-.05a.4.4 0 0 1 0-.15c0-.06 0-.16.05-.29l.19-1a1.47 1.47 0 0 0 .05-.48.47.47 0 0 0-.31-.45.63.63 0 0 0 .39-.29.7.7 0 0 0 .11-.21 1.52 1.52 0 0 0 .06-.2l.11-.55a2.08 2.08 0 0 0 0-.23.61.61 0 0 0 0-.19.49.49 0 0 0-.27-.45 1.52 1.52 0 0 0-.71-.13h-1.1l-.91 4.66h.86zm3.18 2.14l.72-3h.82l-1.1 4.67h-1.06v-3l-.7 3h-.82l1.1-4.66h1.1zm2-3l-1.11 4.66h1.78l.2-.86h-.86l.26-1.1h.84l.21-.85h-.82l.21-.88h.87l.21-.85h-1.71m2.36.89h-.59s-.05 0 0-.05l.2-.84h2.13l-.21.85H64l-.9 3.79h-.86zm4.16.55h.83l.09-.36a1.88 1.88 0 0 0 .06-.55.56.56 0 0 0-.25-.65 1.18 1.18 0 0 0-.65-.15 2.23 2.23 0 0 0-.55.07.91.91 0 0 0-.41.22 1.56 1.56 0 0 0-.28.37 3.36 3.36 0 0 0-.18.56 1.73 1.73 0 0 0-.06.62.94.94 0 0 0 .06.3 1.15 1.15 0 0 0 .12.25 1 1 0 0 0 .15.2l.17.19.23.27a.54.54 0 0 1 .13.33 1.18 1.18 0 0 1 0 .26.62.62 0 0 1-.12.27.22.22 0 0 1-.2.08h-.06l-.26.86h.12a2.29 2.29 0 0 0 .56-.06 1 1 0 0 0 .4-.21 1.24 1.24 0 0 0 .28-.41 3 3 0 0 0 .2-.62 2.1 2.1 0 0 0 .06-.33 1.31 1.31 0 0 0 0-.28 1.76 1.76 0 0 0-.07-.33l-.12-.26-.16-.2-.17-.19a2.61 2.61 0 0 1-.23-.25.58.58 0 0 1-.12-.29v-.1a.54.54 0 0 1 0-.1.57.57 0 0 1 .1-.28.23.23 0 0 1 .19-.09.13.13 0 0 1 .15.14.61.61 0 0 1 0 .21l-.06.26v.05m1.5-1.44h1.78l-.21.85h-.89l-.2.88h.82l-.21.85H69l-.25 1.1h.86l-.21.86h-1.73zm2.75.89h.19c.1 0 .15 0 .15.11a1 1 0 0 1 0 .32.94.94 0 0 1-.13.38.21.21 0 0 1-.18.07l-.13.85s.16 0 .16.12v.08l-.3 1.58v.05a.2.2 0 0 0 0 .07h.87v-.05a.44.44 0 0 1 0-.15 1.58 1.58 0 0 1 0-.29l.19-1a2.36 2.36 0 0 0 0-.48.5.5 0 0 0-.31-.45.61.61 0 0 0 .23-.11.55.55 0 0 0 .16-.18.7.7 0 0 0 .11-.21l.06-.2.11-.55v-.42a.51.51 0 0 0-.27-.45 1.55 1.55 0 0 0-.71-.13h-1.1l-.91 4.66h.85zm4.43-.92H75l-1.15 3.34.42-3.32h-.9l-.39 4.66h1.12l1.9-4.63v-.05m-.8 4.73s-.05 0 0 0l1.11-4.66h.86L76 176.6zm2.18-3.7l-.63 2.66a1.79 1.79 0 0 0-.06.53.53.53 0 0 0 .25.46 1.17 1.17 0 0 0 .67.14h.16l.18-.88a.32.32 0 0 1-.14 0c-.09 0-.13 0-.13-.1a.43.43 0 0 1 0-.18l.52-2.55a.41.41 0 0 1 .11-.24.21.21 0 0 1 .16-.07.29.29 0 0 1 .1 0 .11.11 0 0 1 .05.09.28.28 0 0 1 0 .06l-.15.69h.86l.15-.66a1.79 1.79 0 0 0 .06-.52.58.58 0 0 0-.25-.47 1.27 1.27 0 0 0-.68-.15 1.22 1.22 0 0 0-1.37 1.12m2.8-1h1.78l-.21.85h-.89l-.2.88h.82l-.2.85h-.74l-.26 1.1H81l-.2.86H79zm3.69 3.15l.27-1 .29-1.21h.3v.07a.86.86 0 0 1 0 .21c0 .1 0 .22-.08.37l-.08.3c0 .08-.06.13-.08.18a.22.22 0 0 1-.09.08.17.17 0 0 1-.12 0l-.23.85a2.24 2.24 0 0 0 .55-.05.93.93 0 0 0 .39-.17.88.88 0 0 0 .26-.34 2.3 2.3 0 0 0 .19-.53l.21-.89a1.7 1.7 0 0 0 .06-.57.46.46 0 0 0-.25-.41 1.54 1.54 0 0 0-.7-.12h-1.05l-1.11 4.66h.86l.37-1.56v.13m2.9-2.16l-.75 3.79H85l.9-4.66H87a1.5 1.5 0 0 1 .71.13.52.52 0 0 1 .28.45v.19a1.57 1.57 0 0 0 0 .23l-.11.55a.76.76 0 0 1-.06.2.68.68 0 0 1-.1.21.93.93 0 0 1-.16.18.7.7 0 0 1-.23.11.48.48 0 0 1 .3.45 2.25 2.25 0 0 1 0 .48l-.2 1v.29a.86.86 0 0 0 0 .15v.05H86.4v-.11a.09.09 0 0 1 0-.05l.3-1.58a.11.11 0 0 0 0-.08c0-.08-.05-.11-.15-.12l.12-.85a.23.23 0 0 0 .18-.07 1.41 1.41 0 0 0 .13-.38 1.44 1.44 0 0 0 0-.32c0-.07-.06-.11-.16-.11zm1.76.11l-.63 2.66a2 2 0 0 0-.06.3 2.18 2.18 0 0 0 0 .25.52.52 0 0 0 .27.46 1.61 1.61 0 0 0 .69.12 2 2 0 0 0 .5-.05 1.1 1.1 0 0 0 .4-.17 1.13 1.13 0 0 0 .29-.35 2.44 2.44 0 0 0 .21-.55l.63-2.65a1.67 1.67 0 0 0 0-.56.56.56 0 0 0-.26-.46 1.56 1.56 0 0 0-.68-.12 2.51 2.51 0 0 0-.51 0 .87.87 0 0 0-.4.18 1 1 0 0 0-.29.34 2.19 2.19 0 0 0-.2.55m.3 2.66l.63-2.64a.24.24 0 0 1 .27-.23c.1 0 .16 0 .16.11a.22.22 0 0 1 0 .11l-.63 2.64a.37.37 0 0 1-.09.18.24.24 0 0 1-.18 0c-.11 0-.16 0-.17-.1a.23.23 0 0 1 0-.07m5.15-3.69H93l-1.16 3.34.43-3.32h-.9l-.39 4.66H92l1.82-4.66v-.05m-.82 4.78l1.11-4.66H95l-1.1 4.67zm2.32-3.82h1c.12 0 .19 0 .19.12v.08a1.48 1.48 0 0 1 0 .27c0 .1-.06.24-.11.42s-.1.39-.16.65-.15.59-.23 1a.91.91 0 0 1-.11.27c0 .06-.08.1-.13.1l-.28.85v.05a2.59 2.59 0 0 0 .51-.05 1 1 0 0 0 .4-.18 1 1 0 0 0 .28-.34 1.86 1.86 0 0 0 .21-.55l.58-2.47a1.3 1.3 0 0 0 .06-.31 2.18 2.18 0 0 0 0-.25.52.52 0 0 0-.27-.46 1.59 1.59 0 0 0-.68-.12h-1.04l-.19.84m2.77-.88h1.77l-.21.85h-.88l-.2.88h.82l-.22.85h-.84l-.26 1.1h.9l-.2.86h-1.75zm2.75.89h.19c.09 0 .15 0 .15.11a1 1 0 0 1 0 .32.94.94 0 0 1-.13.38.23.23 0 0 1-.18.07l-.13.85s.15 0 .16.12v.08l-.3 1.58v.05a.2.2 0 0 0 0 .07h.86v-.05a.86.86 0 0 1 0-.15c0-.06 0-.16.06-.29l.19-1a1.74 1.74 0 0 0 0-.48.48.48 0 0 0-.3-.45.55.55 0 0 0 .23-.11.69.69 0 0 0 .16-.18 1 1 0 0 0 .11-.21l.06-.2.1-.55a2.23 2.23 0 0 0 0-.23v-.19a.51.51 0 0 0-.1-.27 1.55 1.55 0 0 0-.71-.13h-1.1l-.92 4.66h.87zM46.7 151.9a9.74 9.74 0 0 0-9 8.73c-.68 5.13 2.73 10.06 7.15 11.17l-1.21 4.74a16.81 16.81 0 0 1-2.36-.67A12.84 12.84 0 0 1 33.14 164c0-7.09 6.06-12.21 13.36-12.21"/><path class="cls-7" d="M50.36 159.45h3.49a.14.14 0 0 0 .13-.09l.27-1.22a4.54 4.54 0 0 0 .12-1.82 2.1 2.1 0 0 0-1.19-1.63 6.64 6.64 0 0 0-2.78-.48 9.92 9.92 0 0 0-2.25.23 4.58 4.58 0 0 0-1.61.72 3.7 3.7 0 0 0-1.08 1.27 7.23 7.23 0 0 0-.66 1.86 5.56 5.56 0 0 0-.1 2.08 3.33 3.33 0 0 0 .33 1 4.43 4.43 0 0 0 .55.83 5.64 5.64 0 0 0 .68.7c.25.22.5.42.74.61a13.81 13.81 0 0 1 1 .92 2 2 0 0 1 .6 1.11 2.29 2.29 0 0 1 0 .86 2 2 0 0 1-.42.92 1 1 0 0 1-.78.28h-.3c-.08 0-.3 0-.32.08l-.67 2.85c0 .1 0 .15.17.15h.52a11.82 11.82 0 0 0 2.31-.09 3.85 3.85 0 0 0 1.61-.66 4.64 4.64 0 0 0 1.06-1.53 8.57 8.57 0 0 0 .69-2.08 5 5 0 0 0 .14-1.1 5 5 0 0 0-.06-1 3.65 3.65 0 0 0-.36-1.07 4.83 4.83 0 0 0-.59-.88 5.21 5.21 0 0 0-.7-.71c-.24-.21-.49-.41-.73-.6s-.72-.58-1-.85a1.7 1.7 0 0 1-.55-1 1.51 1.51 0 0 1 0-.3 1.2 1.2 0 0 1 .05-.36 1.84 1.84 0 0 1 .38-.93 1 1 0 0 1 .76-.29c.39 0 .6.16.66.46a2.08 2.08 0 0 1-.06.7l-.22.87c0 .11 0 .16.17.16m50.83-1.56l-2.79 12.69c0 .08 0 .13.16.13h3.58a.14.14 0 0 0 .13-.09l2.81-12.7h2.54a.14.14 0 0 0 .13-.09l.66-2.85c0-.08 0-.13-.17-.13h-8.88a.15.15 0 0 0-.13.09l-.65 2.85c0 .09 0 .13.16.13zm-10.85-3a.14.14 0 0 1 .13-.09h7.34c.14 0 .2.05.17.13l-.66 2.85a.14.14 0 0 1-.13.09h-3.66l-.63 3h3.4c.13 0 .19 0 .17.13l-.66 2.85a.16.16 0 0 1-.13.08h-3.49l-.8 3.68H95c.14 0 .19 0 .17.13l-.64 2.85a.12.12 0 0 1-.13.09H87c-.13 0-.19-.05-.17-.13zm-7.4 10.16l-.52-10.14c0-.07-.07-.11-.16-.11h-4.55a.14.14 0 0 0-.13.09l-3.49 15.64c0 .08 0 .13.17.13h3.4a.15.15 0 0 0 .13-.09l2.21-10 .61 10c0 .07.06.11.16.11h4.5s.09 0 .13-.09L88.88 155c0-.08 0-.13-.17-.13h-3.37a.14.14 0 0 0-.13.09zm-14.15-7.18h-2.44c-.14 0-.19 0-.17-.13l.66-2.85a.14.14 0 0 1 .13-.09h8.88c.13 0 .18.05.16.13l-.66 2.85a.13.13 0 0 1-.13.09h-2.53l-2.81 12.7a.15.15 0 0 1-.13.09h-3.57c-.14 0-.2-.05-.17-.13zM53 170.68a.25.25 0 0 1-.16-.05v-.1l6.45-15.64a.19.19 0 0 1 .13-.07h4.75a.15.15 0 0 1 .17.13l-.51 15.64c0 .06 0 .09-.13.09H60c-.14 0-.2-.05-.17-.13l.18-2.63h-2.22l-.95 2.69a.14.14 0 0 1-.13.07zm7.29-5.83l.68-6-2.07 6z"/><path class="cls-7" d="M46.77 153.19h.31a6.75 6.75 0 0 0-.68.2c-5.25 1.31-6.52 7-4.65 10.78.85 1.71 2.1 2.52 4.11 3.22l-.78 3a8.09 8.09 0 0 1-5.08-3.75c-3-5-.27-13.26 6.78-13.45"/><text transform="rotate(-18.37 454.22 -490.949)" font-size="10.64" font-family="ProximaNovaCond-Semibold,ProximaNovaCond Semibold" font-weight="700" fill="#fff">ок</text><path d="M175.88 96.83l-.79 4.5 4.29-1.57-3.5-2.93zm13.27 34.39l.79-4.5-4.28 1.57 3.49 2.93zm10.86-23l-4.49-.85 1.51 4.31 2.98-3.46zm-34.1 14.03l4.55.33-1.98-4.11-2.57 3.78z" fill="#fff"/><path d="M132 27.19a2.92 2.92 0 1 1-2.12.92m.61-1.66l1.37 3.2" stroke="#fff" fill="none" stroke-miterlimit="10" stroke-width=".5"/></g></g></svg>