<svg xmlns="http://www.w3.org/2000/svg" viewBox="0 0 30.24 30.02"><defs><style>.cls-1{fill:#d31e47}</style></defs><g id="Слой_2" data-name="Слой 2"><g id="Layer_3" data-name="Layer 3"><path class="cls-1" d="M25.92 26H4.32A4.32 4.32 0 0 1 0 21.7v-11a4.33 4.33 0 0 1 4.32-4.37h21.6a4.33 4.33 0 0 1 4.32 4.32v11A4.32 4.32 0 0 1 25.92 26zM4.32 8.83a1.83 1.83 0 0 0-1.82 1.82v11a1.82 1.82 0 0 0 1.82 1.82h21.6a1.82 1.82 0 0 0 1.82-1.82v-11a1.83 1.83 0 0 0-1.82-1.82z"/><path class="cls-1" d="M13.82 24.77h2.5v4.3h-2.5z"/><path class="cls-1" d="M19.47 30h-8.7a1.25 1.25 0 0 1 0-2.5h8.7a1.25 1.25 0 0 1 0 2.5zM15.12 7.63a1.25 1.25 0 0 1-1-.5L10.28 2a1.25 1.25 0 0 1 2-1.5l2.83 3.79L18 .5A1.25 1.25 0 1 1 20 2l-3.88 5.13a1.27 1.27 0 0 1-1 .5zM10.7 20.67a1.25 1.25 0 0 1-1.25-1.25v-5.25a1.25 1.25 0 1 1 2.5 0v5.25a1.25 1.25 0 0 1-1.25 1.25z"/><path class="cls-1" d="M13.62 14.17H7.79a1.25 1.25 0 0 1 0-2.5h5.83a1.25 1.25 0 0 1 0 2.5zm5.99 6.46a1.22 1.22 0 0 1-1.12-.73l-2.84-6.58a1.22 1.22 0 0 1 2.23-1l1.73 4 1.73-4a1.2 1.2 0 0 1 1.59-.63 1.22 1.22 0 0 1 .64 1.6l-2.85 6.61a1.22 1.22 0 0 1-1.11.73z"/></g></g></svg>