<svg xmlns="http://www.w3.org/2000/svg" viewBox="0 0 27.31 26.98"><defs><style>.cls-1{fill:none;stroke:#fff;stroke-linecap:round;stroke-linejoin:round;stroke-width:2.5px}</style></defs><g id="Слой_2" data-name="Слой 2"><g id="Layer_3" data-name="Layer 3"><path class="cls-1" d="M24.75 20.23v4.5a1 1 0 0 1-1 1H2.25a1 1 0 0 1-1-1V6.61a1 1 0 0 1 1-1h21.5a1 1 0 0 1 1 1v5.12"/><path class="cls-1" d="M22.38 4.86V2.48s-.25-1.87-3-1C16.28 2.47 1.5 5.86 1.5 5.86m24.56 13.75h-8a3.83 3.83 0 0 1-3.81-3.81 3.83 3.83 0 0 1 3.81-3.8h8z"/></g></g></svg>