<svg xmlns="http://www.w3.org/2000/svg" viewBox="0 0 42.72 30.74"><defs><style>.cls-1{fill:none;stroke:#327fbe;stroke-miterlimit:10;stroke-width:1.5px}</style></defs><g id="Слой_2" data-name="Слой 2"><g id="Layer_2" data-name="Layer 2"><path class="cls-1" d="M6.94 26.87L5.2 27a2.39 2.39 0 0 1-2.61-2.1L.76 6.34A2.39 2.39 0 0 1 2.9 3.73L33 .76a2.39 2.39 0 0 1 2.62 2.14L36 6.56"/><path class="cls-1" d="M42 27.6a2.39 2.39 0 0 1-2.42 2.4H9.33a2.39 2.39 0 0 1-2.39-2.4V9a2.39 2.39 0 0 1 2.39-2.44h30.25A2.39 2.39 0 0 1 42 9zM8.87 25.67h4.87m3.9 0h4.87m3.9 0h4.87m3.9 0h4.87"/><path class="cls-1" d="M33.02 12.97h5.85v4.64h-5.85z"/></g></g></svg>