<svg xmlns="http://www.w3.org/2000/svg" viewBox="0 0 32.11 32.11"><g data-name="Слой 2"><path d="M26.61 31.36h-.55l-1.38-.43c-1-.32-2.08-.64-3.12-1a25.79 25.79 0 0 1-4.31-2 30 30 0 0 1-4.47-3.09 33.44 33.44 0 0 1-4.83-5 38.93 38.93 0 0 1-3.88-6 47.57 47.57 0 0 1-2.49-5.69C1.39 7.63 1.2 7.1 1 6.58l-.25-.83v-.59L.85 5a5.42 5.42 0 0 1 1.54-2.11 9.12 9.12 0 0 1 4-1.9l1-.23h.48a10.66 10.66 0 0 1 2.86 1.86 8.36 8.36 0 0 1 2.51 3.62 8.07 8.07 0 0 1 .3 1.34l.05.32a1.45 1.45 0 0 1-.49 1.26 17.72 17.72 0 0 0-2 2.65c-.06.1-.12.2-.17.3s-.11.2-.18.3a1.08 1.08 0 0 0 0 1.11 15.94 15.94 0 0 0 1.77 2.73 22.14 22.14 0 0 0 3.25 3.32 20.05 20.05 0 0 0 3.6 2.34l.28-.1a5 5 0 0 0 .9-.42c.88-.59 1.8-1.24 2.71-1.93a1.74 1.74 0 0 1 1.63-.35 11.36 11.36 0 0 1 4.33 2.2 8.88 8.88 0 0 1 1.78 2.1 2.38 2.38 0 0 1 .2.39l.11.32-.05.64-.05.14a9.71 9.71 0 0 1-1.81 4.24 6 6 0 0 1-2.78 2.2z" fill="none" stroke="#327fbe" stroke-miterlimit="10" stroke-width="1.5" data-name="Layer 2"/></g></svg>