<svg xmlns="http://www.w3.org/2000/svg" viewBox="0 0 49.48 31.65"><defs><style>.cls-1{fill:none;stroke:#327fbe;stroke-miterlimit:10;stroke-width:1.5px}</style></defs><g id="Слой_2" data-name="Слой 2"><g id="Layer_2" data-name="Layer 2"><path class="cls-1" d="M19.77 18.77a2.33 2.33 0 1 1-3.07-1.2 2.34 2.34 0 0 1 3.07 1.2zm-7.09-3.78L35.82 4.86M48.73 30.9a4.15 4.15 0 0 1-3.88-4.38v-3.69a4.15 4.15 0 0 1 3.88-4.37z"/><path class="cls-1" d="M35.39 22.74L33 18.44l7.35-3.22a3.88 3.88 0 0 0 2-5.12l-3.07-7a3.88 3.88 0 0 0-5.12-2L1 15.21c-2 .86 9.55 2 10.41 4L13 22.94a3.88 3.88 0 0 0 5.12 2L29.43 20l3.66 6.62h11.76v-3.88zM33 18.44L29.43 20"/></g></g></svg>