<svg xmlns="http://www.w3.org/2000/svg" viewBox="0 0 84.53 88.89"><defs><style>.cls-4{stroke:#58595b;stroke-miterlimit:10;stroke-width:.52px;fill:none}.cls-5{fill:#fff;fill-rule:evenodd}</style></defs><g id="Слой_2" data-name="Слой 2"><g id="Layer_3" data-name="Layer 3"><path d="M14.07 61.37s-6.8-28.3-7.54-31S4.15 17.09 4 15.62.47 1.48.47 1.48-.26.74 1 .37 2.31.56 2.68 2s3.49 13 3.49 13 3.3 8.45 4.41 11.57 3.3 13.42 4 16.54 4.22 17.45 4.22 17.45m51.67.81s6.79-28.3 7.53-31 2.39-13.23 2.57-14.7 3.49-14.19 3.49-14.19.74-.74-.55-1.11S82.22.56 81.86 2s-3.49 13-3.49 13-3.31 8.52-4.37 11.64-3.31 13.42-4 16.54-4.23 17.45-4.23 17.45" fill="#808285" stroke="#58595b" stroke-miterlimit="10" stroke-width=".52"/><path d="M14.8 61.18c-1 .14-7.53.19-8.45 5.33a88.23 88.23 0 0 0-.92 16.17c.19 3.12 1.29 5.32 5.7 5.69s61.54.19 61.54.19 7.17 1.1 7.17-5.15-.92-14.88-2-17.63-3.5-3.86-8.27-4.78-30.52-3.12-54.77.18z" fill="#a7a9ac"/><path d="M79.47 85.25a48.14 48.14 0 0 0-9.92-6.61c-4.86-2.43-15.25-3.31-26.64-3.5a89.49 89.49 0 0 0-27.37 3.5A22.92 22.92 0 0 0 6 84.7s.09 3.3 5.15 3.67 62.1.19 62.1.19 3.4.46 4.77-1a4.83 4.83 0 0 0 1.45-2.31z" fill="#d1d3d4"/><path class="cls-4" d="M79.47 85.25a48.14 48.14 0 0 0-9.92-6.61c-4.86-2.43-15.25-3.31-26.64-3.5a89.49 89.49 0 0 0-27.37 3.5A23 23 0 0 0 5.85 85"/><path class="cls-4" d="M14.8 61.18c-1 .14-7.53.19-8.45 5.33a88.23 88.23 0 0 0-.92 16.17c.19 3.12 1.29 5.32 5.7 5.69s61.54.19 61.54.19 7.17 1.1 7.17-5.15-.92-14.88-2-17.63-3.5-3.86-8.27-4.78-30.52-3.12-54.77.18z"/><path class="cls-5" d="M34.35 71.58h.31l.39-1.64h-.32l-.39 1.63m1.27-.57l.25-1.06h.31l-.39 1.64h-.39v-1l-.25 1h-.3l.38-1.63h.41zm.78-.75l-.31 1.32h.31l.32-1.33h.21l.08-.3h-.78l-.07.29zm.7-.31h.63l-.07.3h-.31l-.07.31h.3l-.07.3h-.31l-.09.38h.3l-.07.3h-.64zm1 .31h.12a.54.54 0 0 1 0 .11.34.34 0 0 1 0 .13.06.06 0 0 1-.06 0v.3h.05l-.2.71v.08h.32v-.08a.64.64 0 0 0 0-.09l.07-.36a.56.56 0 0 0 0-.17.17.17 0 0 0-.11-.15.2.2 0 0 0 .08 0l.06-.07v-.07a.19.19 0 0 0 0-.07v-.19a.25.25 0 0 0 0-.08v-.07a.16.16 0 0 0-.09-.16.57.57 0 0 0-.25 0h-.4l-.32 1.63h.31zm1.11.75l.25-1.06h.32l-.39 1.64H39v-1l-.24 1h-.3l.39-1.63h.41zm.72-1.06l-.39 1.63h.64l.07-.3h-.3l.09-.38h.31l.07-.3h-.3l.07-.31h.31l.08-.3h-.65m.83.31h-.25l.07-.29h.78l-.07.3H41l-.32 1.33h-.31zm1.45.19h.31v-.13a.43.43 0 0 0 0-.19.19.19 0 0 0-.09-.16.37.37 0 0 0-.23 0H42a.41.41 0 0 0-.24.21.84.84 0 0 0-.07.19.58.58 0 0 0 0 .22.43.43 0 0 0 0 .11v.08l.06.07.06.07.08.1a.14.14 0 0 1 0 .11v.09a.51.51 0 0 1 0 .1.08.08 0 0 1-.07 0l-.09.3a.54.54 0 0 0 .19 0 .31.31 0 0 0 .14-.07.36.36 0 0 0 .1-.14 1 1 0 0 0 .07-.22.52.52 0 0 0 0-.11.17.17 0 0 0 0-.1.43.43 0 0 0 0-.12v-.09l-.06-.07-.06-.07a.6.6 0 0 1-.08-.08.21.21 0 0 1 0-.11.19.19 0 0 1 0-.09.06.06 0 0 1 .06 0 .28.28 0 0 1 0 .08v.1m.53-.5h.65l-.08.3h-.31l-.07.31h.3l-.07.3h-.31l-.09.38H43l-.07.3h-.63zm1 .31h.12a.23.23 0 0 1 0 .11.39.39 0 0 1 0 .13.09.09 0 0 1-.07 0v.3l-.1.55v.08h.32a.15.15 0 0 1 0-.06.51.51 0 0 1 0-.09L44 71a.56.56 0 0 0 0-.17.15.15 0 0 0-.11-.15h.08a.2.2 0 0 0 .06-.07.16.16 0 0 0 0-.07.19.19 0 0 1 0-.07v-.19a.19.19 0 0 1 0-.08v-.07A.18.18 0 0 0 44 70a.57.57 0 0 0-.25 0h-.39l-.32 1.63h.31zm1.56-.32h-.33l-.4 1.17.15-1.16h-.34l-.14 1.63h.41l.64-1.64m-.28 1.65l.39-1.63h.33l-.39 1.64h-.31zm.76-1.29l-.22.93a.4.4 0 0 0 0 .18.2.2 0 0 0 .08.17.48.48 0 0 0 .24.05h.07l.06-.31h-.11a.23.23 0 0 1 0-.07l.21-.87a.22.22 0 0 1 0-.08.07.07 0 0 1 .06 0v.24h.3v-.22a.45.45 0 0 0 0-.19.18.18 0 0 0-.08-.16.43.43 0 0 0-.24 0 .49.49 0 0 0-.32.09.48.48 0 0 0-.16.3m1-.35h.65l-.08.3h-.31l-.07.31h.3l-.07.3h-.31l-.09.38H47l-.07.3h-.63zm1.4.88l.08-.33.1-.42h.1a.2.2 0 0 1 0 .07.35.35 0 0 1 0 .13v.17h-.05L48 71h.19a.3.3 0 0 0 .14-.06.27.27 0 0 0 .09-.12.75.75 0 0 0 .07-.18l.07-.32a.47.47 0 0 0 0-.2.15.15 0 0 0-.08-.14.57.57 0 0 0-.25 0h-.38l-.39 1.63h.31l.13-.55m1-.76l-.27 1.33h-.31l.32-1.63h.39a.54.54 0 0 1 .25 0 .18.18 0 0 1 .1.16v.07a.19.19 0 0 0 0 .08v.26a.16.16 0 0 1 0 .07.13.13 0 0 1-.06.07.2.2 0 0 1-.08 0 .15.15 0 0 1 .11.15 1.09 1.09 0 0 1 0 .17l-.07.36a.51.51 0 0 0 0 .09.15.15 0 0 0 0 .06h-.31v-.04L49 71a.06.06 0 0 0-.06 0v-.3H49a.39.39 0 0 0 0-.13.89.89 0 0 0 0-.11h-.06zm.61 0l-.22.93v.19a.18.18 0 0 0 .09.16.54.54 0 0 0 .24.05h.18a.35.35 0 0 0 .14-.06.4.4 0 0 0 .1-.12.77.77 0 0 0 .07-.2l.22-.92a.5.5 0 0 0 0-.2.16.16 0 0 0-.09-.16.49.49 0 0 0-.24 0h-.18a.33.33 0 0 0-.13.07.32.32 0 0 0-.11.12 1.31 1.31 0 0 0-.07.19m.11.93l.22-.92a.08.08 0 0 1 .09-.08h.06l-.22.93v.07h-.12m1.8-1.29h-.32l-.4 1.17.14-1.16h-.32l-.14 1.63h.42l.63-1.64m-.28 1.65l.39-1.63h.31l-.39 1.64h-.29zm.82-1.39h.42a.34.34 0 0 1 0 .09v.15c0 .06 0 .14-.06.23s0 .2-.08.34a.19.19 0 0 1 0 .09l-.1.3h.18a.31.31 0 0 0 .14-.07.24.24 0 0 0 .1-.12.47.47 0 0 0 .07-.19l.21-.86a.52.52 0 0 0 0-.11v-.09a.18.18 0 0 0-.09-.16.55.55 0 0 0-.24 0h-.39l-.06.29m1-.31h.65l-.08.3h-.31l-.07.31h.29l-.07.3h-.3l-.09.38h.3l-.07.3h-.63zm1 .31H54a.05.05 0 0 1 .06 0 .89.89 0 0 1 0 .11.39.39 0 0 1 0 .13.09.09 0 0 1-.07 0v.3h.05l-.1.55v.08h.31a.15.15 0 0 1 0-.06.51.51 0 0 1 0-.09l.06-.36a.56.56 0 0 0 0-.17.15.15 0 0 0-.11-.15h.08a.13.13 0 0 0 .06-.07.43.43 0 0 0 0-.07v-.41a.18.18 0 0 0-.1-.16.57.57 0 0 0-.25 0h-.39l-.32 1.63h.31zM35 62.93A3.42 3.42 0 0 0 31.8 66a3.62 3.62 0 0 0 2.51 3.92l-.42 1.66a5.67 5.67 0 0 1-.83-.24 4.49 4.49 0 0 1-2.84-4.14 4.43 4.43 0 0 1 4.68-4.3"/><path class="cls-5" d="M36.25 65.57h1.23l.1-.43a1.82 1.82 0 0 0 0-.64.78.78 0 0 0-.42-.57 2.3 2.3 0 0 0-1-.16 3.1 3.1 0 0 0-.79.08 1.48 1.48 0 0 0-.57.25 1.23 1.23 0 0 0-.37.44 2.26 2.26 0 0 0-.23.65 1.86 1.86 0 0 0 0 .73 1.09 1.09 0 0 0 .12.36 1.81 1.81 0 0 0 .19.29 1.36 1.36 0 0 0 .24.24l.26.22c.13.1.25.21.37.32a.64.64 0 0 1 .2.39.76.76 0 0 1 0 .3.8.8 0 0 1-.15.32.33.33 0 0 1-.27.1h-.11a.13.13 0 0 0-.11 0l-.24 1h.3a4.13 4.13 0 0 0 .81 0 1.41 1.41 0 0 0 .56-.23 1.73 1.73 0 0 0 .37-.53A3 3 0 0 0 37 68a1.89 1.89 0 0 0 0-.39 1.17 1.17 0 0 0 0-.33 1.41 1.41 0 0 0-.12-.38 2.4 2.4 0 0 0-.21-.31l-.25-.25-.25-.21a3.81 3.81 0 0 1-.36-.3.58.58 0 0 1-.19-.34.41.41 0 0 1 0-.11.6.6 0 0 1 0-.12.57.57 0 0 1 .14-.33.33.33 0 0 1 .26-.1c.14 0 .21 0 .23.16a.58.58 0 0 1 0 .25l-.08.3a.05.05 0 0 0 .06.06m17.83-.6l-1 4.44h1.31l1-4.45h.89l.23-1h-3.07a.05.05 0 0 0-.05 0l-.23 1h.06zm-3.8-1h2.63l-.23 1h-1.28l-.23 1h1.25l-.23 1H50.9l-.28 1.29h1.31l-.22 1h-2.67zm-2.59 3.56L47.48 64h-1.6l-1.23 5.48h1.26l.78-3.5.21 3.49h1.68L49.75 64h-1.24zm-5-2.52h-.92L42 64h3.17L45 65h-.89l-1 4.45a.05.05 0 0 1-.05 0h-1.33zm-5.5 4.46h-.06l2.26-5.5h1.67a.07.07 0 0 1 .06 0l-.1 5.47h-1.44l.06-.92h-.76l-.34.94zm2.55-2l.28-2.15-.73 2.11z"/><path class="cls-5" d="M35 63.38h.1l-.24.07a2.64 2.64 0 0 0-1.62 3.78 2.21 2.21 0 0 0 1.44 1.13l-.28 1.06a2.82 2.82 0 0 1-1.78-1.33c-1-1.75-.1-4.65 2.38-4.71"/></g></g></svg>